<svg width="32" height="32" viewBox="0 0 32 32" fill="none" xmlns="http://www.w3.org/2000/svg">
<rect width="32" height="32" fill="white"/>
<rect y="2" width="21" height="28" fill="#FBB731"/>
<path fill-rule="evenodd" clip-rule="evenodd" d="M20.25 5.5H21.75C27.1322 5.5062 31.4938 9.8678 31.5 15.25C31.5 15.6642 31.1642 16 30.75 16H11.25C10.8358 16 10.5 15.6642 10.5 15.25C10.5062 9.8678 14.8678 5.5062 20.25 5.5ZM20.25 7C15.9861 7.0051 12.4266 10.2543 12.0337 14.5H29.9662C29.5733 10.2543 26.0138 7.0051 21.75 7H20.25Z" fill="#443737"/>
<path fill-rule="evenodd" clip-rule="evenodd" d="M27.75 20.5542H30.75C31.1643 20.5542 31.5 20.887 31.5 21.2974V22.7839C31.4975 24.8352 29.8201 26.4975 27.75 26.5H14.25C12.1799 26.4975 10.5025 24.8352 10.5 22.7839V21.2974C10.5 20.887 10.8358 20.5542 11.25 20.5542H21.75C21.9123 20.5542 22.0702 20.6063 22.2 20.7028L24.75 22.5981L27.3 20.7028C27.4298 20.6064 27.5877 20.5542 27.75 20.5542ZM27.75 25.0136C28.9927 25.0136 30 24.0153 30 22.7839V22.0406H27.9998L25.2 24.1217C24.9333 24.3199 24.5667 24.3199 24.3 24.1217L21.5002 22.0406H12V22.7839C12 24.0153 13.0074 25.0136 14.25 25.0136H27.75Z" fill="#443737"/>
<path d="M30.75 17.5181H11.25C10.8358 17.5181 10.5 17.8579 10.5 18.2771C10.5 18.6963 10.8358 19.0361 11.25 19.0361H30.75C31.1642 19.0361 31.5 18.6963 31.5 18.2771C31.5 17.8579 31.1642 17.5181 30.75 17.5181Z" fill="#443737"/>
<path d="M17.2048 9.92773C16.7856 9.92773 16.4458 10.2676 16.4458 10.6868V11.4458C16.4458 11.865 16.7856 12.2048 17.2048 12.2048C17.624 12.2048 17.9639 11.865 17.9639 11.4458V10.6868C17.9639 10.2676 17.624 9.92773 17.2048 9.92773Z" fill="#443737"/>
<path d="M21 9.92773C20.5808 9.92773 20.241 10.2676 20.241 10.6868V11.4458C20.241 11.865 20.5808 12.2048 21 12.2048C21.4192 12.2048 21.759 11.865 21.759 11.4458V10.6867C21.759 10.2676 21.4192 9.92773 21 9.92773Z" fill="#443737"/>
<path d="M24.7952 9.92773C24.376 9.92773 24.0361 10.2676 24.0361 10.6868V11.4458C24.0361 11.865 24.376 12.2048 24.7952 12.2048C25.2144 12.2048 25.5542 11.865 25.5542 11.4458V10.6868C25.5542 10.2676 25.2143 9.92773 24.7952 9.92773Z" fill="#443737"/>
</svg>
