<svg width="175.695251" height="56.000000" viewBox="0 0 175.695 56" fill="none" xmlns="http://www.w3.org/2000/svg" xmlns:xlink="http://www.w3.org/1999/xlink">
	<desc>
			Created with Pixso.
	</desc>
	<defs/>
	<rect width="42.000000" height="56.000000" fill="#FBB731" fill-opacity="1.000000"/>
	<rect width="42.000000" height="56.000000" stroke="#F37335" stroke-opacity="0" stroke-width="0.000000"/>
	<path d="M40.5 7L43.5 7C54.2644 7.01245 62.9876 15.7356 63 26.5C63 27.3284 62.3284 28 61.5 28L22.5 28C21.6716 28 21 27.3284 21 26.5C21.0124 15.7356 29.7356 7.01245 40.5 7ZM40.4999 10C31.9722 10.0103 24.8533 16.5085 24.0674 25L59.9324 25C59.1467 16.5085 52.0276 10.0103 43.5 10L40.4999 10Z" clip-rule="evenodd" fill="#443737" fill-opacity="1.000000" fill-rule="evenodd"/>
	<path d="M61.5001 37.1084L55.5 37.1084C55.1754 37.1084 54.8596 37.2126 54.6 37.4058L49.5 41.196L44.4 37.4058C44.1403 37.2126 43.8245 37.1084 43.4999 37.1084L22.5001 37.1084C21.6716 37.1084 21 37.7739 21 38.595L21 41.5676C21.0049 45.6704 24.3599 48.9951 28.5 49L55.5 49C59.6401 48.9951 62.9951 45.6704 63 41.5676L63 38.595C63.0001 37.7739 62.3285 37.1084 61.5001 37.1084ZM55.5 46.0271C57.9853 46.0271 60 44.0305 60 41.5676L60 40.0813L55.9995 40.0813L50.4 44.2434C49.8666 44.6396 49.1333 44.6396 48.6 44.2434L43.0005 40.0813L24 40.0813L24 41.5676C24 44.0305 26.0147 46.0271 28.5 46.0271L55.5 46.0271Z" clip-rule="evenodd" fill="#443737" fill-opacity="1.000000" fill-rule="evenodd"/>
	<path d="M61.5 31.03L22.5 31.03C21.67 31.03 21 31.71 21 32.55C21 33.39 21.67 34.07 22.5 34.07L61.5 34.07C62.32 34.07 63 33.39 63 32.55C63 31.71 62.32 31.03 61.5 31.03Z" fill="#443737" fill-opacity="1.000000" fill-rule="nonzero"/>
	<path d="M34.4 15.85C33.57 15.85 32.89 16.53 32.89 17.37L32.89 18.89C32.89 19.73 33.57 20.4 34.4 20.4C35.24 20.4 35.92 19.73 35.92 18.89L35.92 17.37C35.92 16.53 35.24 15.85 34.4 15.85Z" fill="#443737" fill-opacity="1.000000" fill-rule="nonzero"/>
	<path d="M42 15.85C41.16 15.85 40.48 16.53 40.48 17.37L40.48 18.89C40.48 19.73 41.16 20.4 42 20.4C42.83 20.4 43.51 19.73 43.51 18.89L43.51 17.37C43.51 16.53 42.83 15.85 42 15.85Z" fill="#443737" fill-opacity="1.000000" fill-rule="nonzero"/>
	<path d="M49.59 15.85C48.75 15.85 48.07 16.53 48.07 17.37L48.07 18.89C48.07 19.73 48.75 20.4 49.59 20.4C50.42 20.4 51.1 19.73 51.1 18.89L51.1 17.37C51.1 16.53 50.42 15.85 49.59 15.85Z" fill="#443737" fill-opacity="1.000000" fill-rule="nonzero"/>
	<path d="M129.34 35.18C130.67 35.9 132.29 36.26 134.19 36.26C135.28 36.26 136.37 36.15 137.46 35.92C138.54 35.7 139.5 35.38 140.34 34.96L140.34 26.66L133.62 26.66L133.62 29.35L137.26 29.35L137.26 32.66C136.26 32.95 135.3 33.09 134.38 33.09C132.67 33.09 131.38 32.63 130.5 31.7Q129.2 30.31 129.2 27.59Q129.2 24.91 130.47 23.49Q130.62 23.33 130.79 23.18Q132.06 22.05 134.34 22.05Q135.68 22.05 136.83 22.41C137.6 22.63 138.35 23.02 139.09 23.56L140.29 20.66C139.62 20.1 138.74 19.65 137.67 19.31Q136.09 18.81 134.31 18.81C132.42 18.81 130.81 19.17 129.46 19.89C128.12 20.61 127.09 21.63 126.37 22.94C125.66 24.25 125.31 25.8 125.31 27.59C125.31 29.34 125.66 30.86 126.34 32.15Q126.8 33.01 127.43 33.7L127.43 33.7Q128.24 34.57 129.34 35.18ZM151.48 36.26C149.81 36.26 148.35 35.9 147.09 35.18C145.84 34.44 144.86 33.43 144.16 32.13Q143.13 30.16 143.13 27.52Q143.13 24.88 144.16 22.94C144.86 21.63 145.84 20.61 147.09 19.89C148.33 19.17 149.8 18.81 151.48 18.81C153.16 18.81 154.62 19.17 155.87 19.89C157.13 20.61 158.11 21.63 158.8 22.94C159.5 24.24 159.85 25.76 159.85 27.5C159.85 29.26 159.5 30.79 158.8 32.11C158.11 33.42 157.13 34.44 155.87 35.18C154.62 35.9 153.16 36.26 151.48 36.26ZM165.01 35.75C166.19 36.09 167.45 36.26 168.78 36.26C170.19 36.26 171.4 36.04 172.43 35.61C173.47 35.16 174.27 34.55 174.83 33.76C175.4 32.96 175.69 32.04 175.69 30.98C175.69 28.61 174.14 27.09 171.03 26.42L168.32 25.84Q167.07 25.58 166.57 25.15C166.23 24.86 166.07 24.48 166.07 24.02C166.07 23.39 166.34 22.89 166.88 22.51C167.44 22.11 168.23 21.91 169.23 21.91C171.11 21.91 172.7 22.43 174.01 23.47L175.09 20.73Q174.08 19.82 172.55 19.31Q171.01 18.81 169.26 18.81C167.9 18.81 166.7 19.04 165.66 19.48C164.63 19.93 163.83 20.56 163.26 21.38C162.68 22.18 162.39 23.11 162.39 24.19C162.39 26.68 163.91 28.25 166.93 28.89L169.64 29.47C170.52 29.66 171.14 29.89 171.49 30.16C171.84 30.43 172.02 30.8 172.02 31.27C172.02 31.81 171.76 32.27 171.25 32.63C170.75 32.99 169.93 33.16 168.78 33.16Q167.42 33.16 166.16 32.83Q165.94 32.77 165.73 32.71C164.77 32.4 163.91 31.99 163.16 31.46L162.08 34.39C162.87 34.96 163.84 35.42 165.01 35.75ZM74.7 36L74.7 19.07L82.45 19.07Q85.16 19.07 86.63 20.25Q87.23 20.73 87.59 21.34L87.59 21.34Q88.12 22.25 88.12 23.47Q88.12 24.59 87.65 25.46L87.65 25.46Q87.56 25.63 87.44 25.79Q87.3 25.99 87.14 26.17L87.14 26.17Q86.52 26.85 85.57 27.24C86.53 27.51 87.27 27.99 87.78 28.67Q87.9 28.83 88 29L88 29L88 29L88 29L88 29Q88.57 29.94 88.57 31.22Q88.57 32.66 87.93 33.7L87.93 33.7Q87.56 34.29 86.99 34.75C85.95 35.58 84.52 36 82.72 36L74.7 36ZM93.25 34.52Q95.14 36.26 98.63 36.26Q102.14 36.26 103.98 34.51L103.98 34.51L103.98 34.51Q104.03 34.46 104.08 34.41Q104.11 34.39 104.13 34.36Q105.93 32.51 105.93 28.91L105.93 19.07L102.26 19.07L102.26 28.94Q102.26 31.3 101.09 32.31Q100.2 33.09 98.63 33.09C97.45 33.09 96.55 32.75 95.92 32.06C95.3 31.35 94.99 30.31 94.99 28.94L94.99 19.07L91.27 19.07L91.27 28.91C91.27 31.35 91.89 33.18 93.14 34.41Q93.19 34.46 93.25 34.52ZM109.22 36L109.22 19.07L116.95 19.07C118.84 19.07 120.29 19.53 121.32 20.44C122.34 21.35 122.85 22.63 122.85 24.26C122.85 25.52 122.53 26.58 121.87 27.43C121.23 28.26 120.31 28.83 119.11 29.13C119.96 29.39 120.65 30 121.2 30.98L123.93 36L119.83 36L116.9 30.59Q116.54 29.95 116.01 29.71C115.66 29.53 115.25 29.44 114.77 29.44L112.94 29.44L112.94 36L109.22 36ZM78.25 26.04L81.8 26.04Q83.52 26.04 84.16 25.21L84.16 25.21Q84.54 24.71 84.54 23.92Q84.54 23.15 84.17 22.67L84.17 22.67Q83.53 21.83 81.8 21.83L78.25 21.83L78.25 26.04ZM112.94 26.76L116.28 26.76Q118.11 26.76 118.82 25.86Q119.28 25.29 119.28 24.35Q119.28 23.44 118.83 22.88Q118.12 21.98 116.28 21.98L112.94 21.98L112.94 26.76ZM151.48 33.09C152.89 33.09 153.98 32.6 154.77 31.63C155.57 30.63 155.97 29.27 155.97 27.52C155.97 25.76 155.57 24.4 154.79 23.44C154 22.47 152.9 21.98 151.48 21.98Q150.16 21.98 149.19 22.56Q148.63 22.9 148.19 23.44C147.41 24.4 147.01 25.76 147.01 27.52C147.01 29.27 147.41 30.63 148.19 31.63Q148.63 32.17 149.19 32.51Q150.16 33.09 151.48 33.09ZM78.25 33.24L82.21 33.24Q83.65 33.24 84.32 32.68Q84.44 32.59 84.53 32.48L84.53 32.48Q85 31.94 85 31Q85 30.11 84.56 29.58L84.56 29.58Q84.45 29.45 84.32 29.35Q83.65 28.79 82.21 28.79L78.25 28.79L78.25 33.24Z" fill="#443737" fill-opacity="1.000000" fill-rule="evenodd"/>
</svg>
