<svg width="29.224304" height="26.000000" viewBox="0 0 29.2243 26" fill="none" xmlns="http://www.w3.org/2000/svg" xmlns:xlink="http://www.w3.org/1999/xlink">
	<desc>
			Created with Pixso.
	</desc>
	<defs/>
	<path d="M26.81 15.33L29.19 4.77C29.35 4.01 28.79 3.25 27.98 3.25L8.07 3.25L7.61 1.01C7.46 0.45 6.95 0 6.39 0L1.21 0C0.5 0 0 0.55 0 1.21L0 2.03C0 2.74 0.5 3.25 1.21 3.25L4.72 3.25L8.32 20.71C7.46 21.22 6.9 22.14 6.9 23.15C6.9 24.73 8.17 26 9.75 26C11.27 26 12.59 24.73 12.59 23.15C12.59 22.39 12.23 21.68 11.73 21.12L22.34 21.12C21.83 21.68 21.53 22.39 21.53 23.15C21.53 24.73 22.8 26 24.37 26C25.89 26 27.21 24.73 27.21 23.15C27.21 22.03 26.55 21.07 25.59 20.61L25.84 19.39C26.05 18.63 25.44 17.87 24.67 17.87L11.07 17.87L10.71 16.25L25.59 16.25C26.15 16.25 26.66 15.89 26.81 15.33Z" fill="#FFC725" fill-opacity="1.000000" fill-rule="nonzero"/>
</svg>
